<svg width="220" height="220" viewBox="0 0 220 220" fill="none" xmlns="http://www.w3.org/2000/svg">
<path d="M96.7 5.7C98.2 4.2 101.3 2.3 103.5 1.5C105.7 0.7 108.7 0.1 110.3 0C111.8 0 114.7 0.7 116.8 1.6C118.8 2.4 121.6 4.1 122.9 5.3C124.2 6.5 126.1 9.3 127.1 11.5C128.1 13.7 129 17.1 129 19C129 20.9 128.1 24.3 127.1 26.5C126.2 28.7 123.9 31.7 122.2 33.2C120.4 34.8 117.2 36.5 115 37C112.8 37.5 109.1 37.7 106.8 37.3C104.4 36.9 101.2 35.6 99.5 34.5C97.8 33.3 95.5 30.9 94.2 29C93 27.1 91.8 25.1 91.7 24.6C91.6 24.1 88.3 24.5 84.5 25.4C80.7 26.4 74.3 28.6 70.5 30.4C66.7 32.1 60.2 35.8 56.1 38.5C52.1 41.3 45.9 46.4 42.3 50C38.8 53.6 33.6 59.9 30.7 64C27.9 68.1 24.1 74.9 22.3 79C20.5 83.1 18.2 90.1 17 94.5C15.9 98.9 14.5 103 14 103.5C13.5 104 12.4 104.2 11.5 103.8C10.7 103.3 10 102 10 100.8C10 99.5 11.1 94.6 12.5 89.7C13.9 84.9 17 77.1 19.4 72.3C21.8 67.4 25.8 60.8 28.3 57.5C30.8 54.2 35.7 48.6 39.1 45.1C42.6 41.6 49.3 36.2 54 33.1C58.7 30.1 65.9 26.1 70 24.3C74.1 22.5 80.4 20.4 84 19.5L84.111 19.4723C90.4012 17.8998 90.5099 17.8727 92.2 13.2C93.1 10.6 95.2 7.3 96.7 5.7Z" fill="#477262"/>
<path d="M158.8 33.4C158.7 32.8 159 32 159.5 31.7C160 31.3 161 31 161.9 31C162.8 31.1 166.2 33 169.5 35.4C172.8 37.8 177.8 42 180.5 44.6C183.3 47.3 187.6 52.2 190.1 55.5C192.7 58.8 196.1 63.8 197.7 66.5C199.3 69.3 202 74.9 203.8 79C205.5 83.1 207.8 90.3 208.9 95C210 99.7 211.2 107.3 211.6 112C211.9 116.7 211.7 124.6 210 139L213.2 141.8C214.9 143.3 217.2 146.3 218.1 148.5C219.1 150.7 220 154.1 220 156C220 157.9 219.1 161.3 218.1 163.5C217.1 165.7 215.2 168.5 213.9 169.7C212.6 170.9 209.8 172.6 207.8 173.4C205.7 174.3 202.5 175 200.8 175C199 175 195.5 174 193 172.8C190.4 171.4 187.3 168.7 185.5 166.2C183 162.6 182.5 160.9 182.5 156C182.5 151.1 183 149.5 185.5 145.9C187.2 143.5 189.8 140.8 191.5 139.8C193.2 138.8 196.7 137.7 204.5 136.5L205.2 132C205.5 129.5 205.9 123.2 205.9 118C205.9 112.4 205.2 104.8 204.1 99.5C203.1 94.5 200.8 86.7 198.9 82C197.1 77.3 193 69.7 189.9 65C186.7 60.3 181.8 54.1 178.8 51.1C175.9 48.1 170.2 43.2 166.2 40.1C162.2 37 158.9 34 158.8 33.4Z" fill="#477262"/>
<path d="M6.2 142.3C7.4 141.1 10.1 139.4 12 138.6C13.9 137.8 17.1 137.1 19 137.1C20.9 137.1 24.4 137.9 26.7 139C29.3 140.2 32.2 142.7 34 145.2C35.7 147.6 37.3 151.1 37.6 153C37.9 154.9 37.7 158.4 37.1 160.7C36.5 163.1 34.6 166.6 30 172L35.9 179.2C39.1 183.2 44.5 188.7 47.8 191.5C51.1 194.2 57.4 198.6 61.7 201.1C66 203.7 72.7 206.9 76.5 208.3C80.3 209.7 87.3 211.5 92 212.4C96.7 213.3 104.8 214 110 214C115.2 214 123.3 213.3 128 212.4C132.7 211.5 140.1 209.5 144.5 207.9C148.9 206.3 154 204 155.7 203C157.7 201.8 159.6 201.3 160.6 201.7C161.4 202.2 162 203.4 161.8 204.5C161.6 205.7 159.4 207.5 156 209.2C153 210.7 146.4 213.3 141.5 214.9C136.5 216.5 127.8 218.4 122 219C115.9 219.7 107.8 219.9 102.5 219.5C97.5 219.1 89.2 217.7 84 216.4C78.8 215.1 71.6 212.6 68 210.9C64.4 209.2 58.8 206.2 55.5 204.2C52.2 202.2 46.6 198 43 194.9C39.4 191.9 33.8 185.9 30.5 181.7C24.7 174.3 24.4 174.1 21 174.7C19.1 175 15.7 174.6 13.5 173.9C11.3 173.2 8.2 171.4 6.6 170C5 168.6 2.8 165.7 1.9 163.5C0.9 161.3 0 157.8 0 155.7C0 153.7 0.9 150.3 1.9 148.2C2.9 146.2 4.9 143.5 6.2 142.3Z" fill="#477262"/>
</svg>
