<svg width="131" height="59" viewBox="0 0 131 59" fill="none" xmlns="http://www.w3.org/2000/svg">
<mask id="path-1-inside-1_20_34" fill="white">
<path fill-rule="evenodd" clip-rule="evenodd" d="M15.6526 1.36407C10.1596 2.87907 0.542593 7.93607 0.0175934 9.58607C-0.648407 11.6831 17.7696 26.9041 25.4686 30.6191C31.4176 33.4901 33.8646 34.1121 39.4686 34.1791C46.9536 34.2691 50.7596 33.4011 50.7596 31.6061C50.7596 29.3361 43.6096 20.0831 39.8316 17.4651C37.7296 16.0091 33.8166 13.9391 31.1356 12.8651L26.2596 10.9131L30.2596 11.5511C39.5286 13.0271 44.8676 17.2361 55.2726 31.2721C69.4676 50.4191 82.0416 58.9421 96.0206 58.8931C103.147 58.8681 108.543 56.8011 114.008 52.0021C118.197 48.3241 122.76 39.8071 122.76 35.6671C122.76 33.3881 123.371 32.5981 125.781 31.7581C129.412 30.4921 130.76 28.2511 130.76 23.4811C130.76 21.0441 130.304 19.9151 129.32 19.9151C128.379 19.9151 127.773 18.6181 127.57 16.1651C127.324 13.1851 126.849 12.4151 125.26 12.4151C123.671 12.4151 123.196 13.1851 122.95 16.1651C122.706 19.1031 122.219 19.9151 120.7 19.9151C119.229 19.9151 118.76 19.2181 118.76 17.0371C118.76 13.9581 116.521 11.3271 114.804 12.3881C114.23 12.7431 113.76 14.5811 113.76 16.4741C113.76 19.2481 113.373 19.9151 111.76 19.9151C110.308 19.9151 109.76 20.5821 109.76 22.3501C109.76 26.8331 111.649 29.9711 115.254 31.4771C119.42 33.2181 119.578 34.6161 116.384 41.4751C112.636 49.5251 104.32 54.9151 95.6476 54.9151C90.2546 54.9151 81.8116 51.5071 76.9986 47.3881C71.2656 42.4801 66.7206 33.0921 66.8906 26.5051L67.0216 21.4151L67.7436 27.0231C68.7406 34.7711 69.4136 35.5851 72.4626 32.7401C75.5876 29.8241 78.2826 24.5551 79.1816 19.6001C79.8876 15.7121 78.2756 5.35207 76.8246 4.45507C76.3846 4.18407 73.6036 5.18807 70.6436 6.68807C63.5316 10.2921 60.7826 14.4681 60.6866 21.8131L60.6136 27.4151L58.6986 22.0211C53.0576 6.13107 44.2446 -0.183933 27.9746 0.00406704C23.7316 0.054067 18.1866 0.666067 15.6526 1.36407ZM38.4146 2.40507C48.6736 5.45207 52.0566 9.35907 58.7746 25.9151C63.6796 38.0041 67.5966 41.5641 63.6476 30.3441C59.9396 19.8091 62.4086 12.4891 71.2386 7.83007C75.0536 5.81807 75.9646 5.65107 76.6996 6.83007C78.3476 9.47307 78.8706 16.7901 77.7206 21.1111C76.5726 25.4241 72.4126 31.9151 70.7966 31.9151C68.7736 31.9151 68.7056 24.2661 70.6716 17.9491C71.7756 14.4021 72.5176 11.3391 72.3206 11.1421C71.4136 10.2361 66.7906 17.8901 65.7546 22.0111C64.8746 25.5121 64.8816 27.6551 65.7836 31.0061C69.8096 45.9571 81.6416 55.8831 95.4626 55.9051C102.151 55.9161 105.383 54.8711 110.594 51.0161C117.711 45.7501 123 30.9151 117.76 30.9151C113.315 30.9151 109.507 22.9941 113.26 21.5531C114.195 21.1951 114.76 19.6691 114.76 17.5051C114.76 15.5961 115.21 13.7551 115.76 13.4151C116.364 13.0421 116.76 14.4051 116.76 16.8561V20.9151H120.76H124.76V16.8561C124.76 14.4051 125.156 13.0421 125.76 13.4151C126.31 13.7551 126.76 15.5811 126.76 17.4741C126.76 19.8661 127.217 20.9151 128.26 20.9151C130.506 20.9151 130.155 26.5201 127.76 28.9151C126.66 30.0151 124.95 30.9151 123.96 30.9151C122.566 30.9151 121.883 32.2591 120.928 36.8791C118.606 48.1221 109.254 56.6151 98.1026 57.6081C90.6166 58.2751 83.0076 55.6951 74.4456 49.5851C68.4446 45.3031 65.3316 41.8951 51.5346 24.5071C43.3646 14.2111 37.5736 10.7951 27.1526 10.1261C19.1456 9.61307 16.6716 11.2371 23.9696 12.2161C31.5036 13.2271 40.6566 18.7351 45.5786 25.2201C48.0016 28.4121 49.6706 31.3371 49.2886 31.7201C48.9056 32.1021 44.9086 32.4151 40.4056 32.4151C33.2076 32.4151 31.4336 32.0281 25.7386 29.2121C19.7336 26.2431 2.85159 12.7891 2.05759 10.3381C1.86559 9.74607 3.90459 8.06607 6.58859 6.60507C16.5386 1.18907 28.8496 -0.434933 38.4146 2.40507Z"/>
</mask>
<path d="M15.6526 1.36407L14.0592 -4.42049L14.0573 -4.41997L15.6526 1.36407ZM0.0175934 9.58607L-5.69996 7.76684L-5.70093 7.76988L0.0175934 9.58607ZM25.4686 30.6191L28.0764 25.2154L28.0761 25.2153L25.4686 30.6191ZM39.4686 34.1791L39.5407 28.1795L39.5403 28.1795L39.4686 34.1791ZM39.8316 17.4651L43.249 12.5334L43.2481 12.5328L39.8316 17.4651ZM31.1356 12.8651L33.3668 7.29535L33.3655 7.29484L31.1356 12.8651ZM26.2596 10.9131L27.2046 4.98796L24.0297 16.4833L26.2596 10.9131ZM30.2596 11.5511L29.3145 17.4762L29.316 17.4764L30.2596 11.5511ZM55.2726 31.2721L50.4526 34.8452L50.4527 34.8454L55.2726 31.2721ZM96.0206 58.8931L96.0416 64.893L96.0416 64.893L96.0206 58.8931ZM114.008 52.0021L110.049 47.4933L110.049 47.4936L114.008 52.0021ZM125.781 31.7581L127.755 37.4238L127.756 37.4236L125.781 31.7581ZM127.57 16.1651L121.59 16.6587L121.59 16.6599L127.57 16.1651ZM122.95 16.1651L128.929 16.6617L128.929 16.6587L122.95 16.1651ZM114.804 12.3881L111.65 7.28394L111.648 7.28515L114.804 12.3881ZM115.254 31.4771L117.567 25.941L117.566 25.9407L115.254 31.4771ZM116.384 41.4751L110.944 38.9422L110.944 38.9426L116.384 41.4751ZM76.9986 47.3881L73.0966 51.946L73.0974 51.9466L76.9986 47.3881ZM66.8906 26.5051L72.8886 26.6599L72.8886 26.6594L66.8906 26.5051ZM67.0216 21.4151L72.9725 20.6489L61.0236 21.2607L67.0216 21.4151ZM67.7436 27.0231L73.6945 26.2573L73.6945 26.2569L67.7436 27.0231ZM72.4626 32.7401L76.5559 37.1269L76.556 37.1269L72.4626 32.7401ZM79.1816 19.6001L73.2781 18.5281L73.278 18.529L79.1816 19.6001ZM76.8246 4.45507L79.9796 -0.648479L79.9711 -0.653686L76.8246 4.45507ZM70.6436 6.68807L73.3557 12.0401L73.3558 12.0401L70.6436 6.68807ZM60.6866 21.8131L54.6871 21.7347L54.6871 21.7349L60.6866 21.8131ZM60.6136 27.4151L54.9594 29.4225L66.6131 27.4933L60.6136 27.4151ZM58.6986 22.0211L53.0443 24.0284L53.0444 24.0285L58.6986 22.0211ZM27.9746 0.00406704L27.9053 -5.99553L27.9039 -5.99552L27.9746 0.00406704ZM38.4146 2.40507L40.1229 -3.34661L40.1224 -3.34675L38.4146 2.40507ZM58.7746 25.9151L64.3344 23.6592L64.3343 23.6591L58.7746 25.9151ZM63.6476 30.3441L69.3073 28.3521L69.3073 28.352L63.6476 30.3441ZM71.2386 7.83007L68.4396 2.52291L68.4386 2.52344L71.2386 7.83007ZM76.6996 6.83007L71.608 10.0042L71.6083 10.0047L76.6996 6.83007ZM77.7206 21.1111L83.5187 22.6544L83.5188 22.6542L77.7206 21.1111ZM70.6716 17.9491L64.9427 16.1659L64.9426 16.1661L70.6716 17.9491ZM72.3206 11.1421L76.5632 6.89943L76.5609 6.89709L72.3206 11.1421ZM65.7546 22.0111L59.9357 20.5482L59.9356 20.5484L65.7546 22.0111ZM65.7836 31.0061L59.9898 32.5656L59.99 32.5662L65.7836 31.0061ZM95.4626 55.9051L95.4725 49.9051L95.4721 49.9051L95.4626 55.9051ZM110.594 51.0161L114.162 55.8396L114.162 55.8393L110.594 51.0161ZM113.26 21.5531L111.114 15.9498L111.109 15.9518L113.26 21.5531ZM115.76 13.4151L112.607 8.31006L112.605 8.3115L115.76 13.4151ZM116.76 20.9151H110.76V26.9151H116.76V20.9151ZM124.76 20.9151V26.9151H130.76V20.9151H124.76ZM125.76 13.4151L128.915 8.3115L128.912 8.31006L125.76 13.4151ZM120.928 36.8791L115.052 35.6645L115.052 35.6655L120.928 36.8791ZM98.1026 57.6081L97.5704 51.6317L97.5701 51.6317L98.1026 57.6081ZM74.4456 49.5851L77.9309 44.7011L77.9306 44.701L74.4456 49.5851ZM51.5346 24.5071L56.2347 20.7776L56.2346 20.7775L51.5346 24.5071ZM27.1526 10.1261L27.537 4.13839L27.5362 4.13834L27.1526 10.1261ZM23.9696 12.2161L24.7676 6.26937L24.7673 6.26933L23.9696 12.2161ZM45.5786 25.2201L40.7993 28.8475L40.7995 28.8478L45.5786 25.2201ZM49.2886 31.7201L53.5257 35.9683L53.5312 35.9627L53.5368 35.9572L49.2886 31.7201ZM25.7386 29.2121L28.3981 23.8337L28.3978 23.8336L25.7386 29.2121ZM2.05759 10.3381L7.76556 8.48898L7.76493 8.48704L2.05759 10.3381ZM6.58859 6.60507L3.72008 1.33519L3.72002 1.33522L6.58859 6.60507ZM14.0573 -4.41997C10.7291 -3.50202 6.52508 -1.64536 3.17951 0.113933C1.48017 1.00755 -0.166085 1.96394 -1.49017 2.87449C-2.14134 3.32228 -2.83864 3.84333 -3.45577 4.41323C-3.82695 4.756 -5.11683 5.93413 -5.69996 7.76684L5.73515 11.4053C5.4625 12.2622 5.05649 12.7937 4.93708 12.9456C4.85211 13.0537 4.78421 13.1281 4.74678 13.1676C4.70811 13.2083 4.68562 13.229 4.68546 13.2291C4.68465 13.2299 4.69784 13.2177 4.72806 13.1924C4.75792 13.1675 4.79978 13.1336 4.85516 13.0908C4.9675 13.0039 5.11758 12.8941 5.30936 12.7622C6.10777 12.2131 7.30752 11.5012 8.76467 10.7349C11.7321 9.1745 15.0831 7.74516 17.2479 7.14811L14.0573 -4.41997ZM-5.70093 7.76988C-6.43946 10.0953 -5.60749 12.0331 -5.3823 12.5446C-5.03488 13.3338 -4.58867 14.0015 -4.24455 14.4736C-3.53204 15.4512 -2.59768 16.477 -1.64376 17.4453C0.308132 19.4268 2.95937 21.7865 5.78403 24.1208C11.2991 28.6786 18.3061 33.8249 22.8611 36.0229L28.0761 25.2153C24.9321 23.6982 18.8806 19.3765 13.4284 14.8708C10.7694 12.6734 8.45987 10.6024 6.90511 9.02412C6.10569 8.21258 5.65026 7.67617 5.45294 7.40545C5.34215 7.25344 5.45344 7.37548 5.60046 7.70945C5.62527 7.76579 6.39139 9.339 5.73611 11.4022L-5.70093 7.76988ZM22.8608 36.0227C25.9242 37.5011 28.4623 38.5899 31.1194 39.2655C33.8366 39.9564 36.3865 40.1426 39.3969 40.1786L39.5403 28.1795C36.9466 28.1485 35.4711 27.9902 34.0765 27.6356C32.6219 27.2657 30.962 26.608 28.0764 25.2154L22.8608 36.0227ZM39.3965 40.1786C43.2621 40.2251 46.6584 40.0411 49.2543 39.4494C50.5141 39.1623 52.0952 38.6711 53.494 37.6897C55.047 36.6002 56.7596 34.5711 56.7596 31.6061H44.7596C44.7596 30.7081 45.0142 29.8435 45.4537 29.1201C45.8642 28.4446 46.3353 28.0534 46.6019 27.8663C47.0531 27.5497 47.215 27.6065 46.5876 27.7495C45.4093 28.018 43.1601 28.223 39.5407 28.1795L39.3965 40.1786ZM56.7596 31.6061C56.7596 30.0526 56.2319 28.7279 55.9634 28.0989C55.6193 27.2927 55.1834 26.4859 54.7417 25.7424C53.8505 24.2425 52.6864 22.5843 51.46 20.9973C49.1384 17.993 45.9402 14.3983 43.249 12.5334L36.4142 22.3967C37.501 23.1498 39.7668 25.4906 41.9647 28.3349C42.9981 29.6721 43.8575 30.9164 44.4251 31.8717C44.7127 32.3558 44.8649 32.6648 44.9266 32.8093C45.0639 33.131 44.7596 32.592 44.7596 31.6061H56.7596ZM43.2481 12.5328C40.7322 10.7901 36.4129 8.51561 33.3668 7.29535L28.9044 18.4348C31.2203 19.3625 34.7269 21.228 36.4151 22.3974L43.2481 12.5328ZM33.3655 7.29484L28.4895 5.34284L24.0297 16.4833L28.9057 18.4353L33.3655 7.29484ZM25.3145 16.8382L29.3145 17.4762L31.2046 5.62596L27.2046 4.98796L25.3145 16.8382ZM29.316 17.4764C33.0824 18.0762 35.7435 19.1412 38.6253 21.4133C41.753 23.8792 45.2948 27.8876 50.4526 34.8452L60.0926 27.6989C54.8454 20.6206 50.5152 15.5064 46.0549 11.9898C41.3487 8.27939 36.7058 6.50197 31.2031 5.62572L29.316 17.4764ZM50.4527 34.8454C64.9957 54.4618 79.1356 64.9523 96.0416 64.893L95.9996 52.8931C84.9475 52.9318 73.9395 46.3763 60.0925 27.6987L50.4527 34.8454ZM96.0416 64.893C104.65 64.8628 111.437 62.2446 117.967 56.5105L110.049 47.4936C105.648 51.3575 101.644 52.8733 95.9995 52.8931L96.0416 64.893ZM117.966 56.5108C120.8 54.023 123.392 50.2965 125.243 46.8414C126.991 43.5801 128.76 39.3045 128.76 35.6671H116.76C116.76 35.6607 116.757 35.8207 116.682 36.1795C116.61 36.5243 116.489 36.9674 116.306 37.5022C115.937 38.5785 115.376 39.8481 114.666 41.1743C113.188 43.9321 111.404 46.3031 110.049 47.4933L117.966 56.5108ZM128.76 35.6671C128.76 35.3233 128.787 35.3551 128.736 35.5738C128.67 35.8594 128.498 36.3447 128.114 36.8422C127.746 37.3181 127.382 37.5473 127.283 37.6042C127.219 37.6408 127.317 37.5767 127.755 37.4238L123.806 26.0924C122.446 26.5664 120.215 27.4383 118.619 29.5037C116.912 31.7126 116.76 34.1694 116.76 35.6671H128.76ZM127.756 37.4236C130.427 36.4922 133.04 34.9074 134.773 32.0264C136.388 29.3419 136.76 26.2998 136.76 23.4811H124.76C124.76 25.4323 124.457 25.8958 124.49 25.8408C124.529 25.7772 124.58 25.7352 124.564 25.7469C124.519 25.7802 124.314 25.9151 123.805 26.0926L127.756 37.4236ZM136.76 23.4811C136.76 22.0893 136.658 20.2371 135.972 18.5375C135.6 17.6155 134.926 16.4126 133.692 15.432C132.364 14.3761 130.807 13.9151 129.32 13.9151V25.9151C128.324 25.9151 127.194 25.5951 126.227 24.8271C125.355 24.1344 124.98 23.366 124.845 23.0309C124.709 22.6948 124.704 22.5248 124.723 22.6668C124.738 22.7864 124.76 23.0433 124.76 23.4811H136.76ZM129.32 13.9151C130.594 13.9151 131.715 14.3961 132.514 15.0608C133.216 15.6441 133.517 16.2336 133.605 16.422C133.754 16.7427 133.629 16.6336 133.549 15.6702L121.59 16.6599C121.713 18.1495 121.992 19.9155 122.731 21.4979C123.454 23.047 125.439 25.9151 129.32 25.9151V13.9151ZM133.549 15.6714C133.439 14.3328 133.232 11.9811 132.026 10.0252C131.261 8.78263 130.135 7.72875 128.658 7.0837C127.328 6.50271 126.076 6.41507 125.26 6.41507V18.4151C125.237 18.4151 124.641 18.4237 123.854 18.0802C122.921 17.6726 122.227 16.9975 121.81 16.32C121.476 15.7779 121.425 15.4047 121.458 15.5641C121.486 15.6945 121.537 16.0138 121.59 16.6587L133.549 15.6714ZM125.26 6.41507C124.443 6.41507 123.191 6.50271 121.861 7.0837C120.384 7.72875 119.258 8.78263 118.493 10.0252C117.288 11.9811 117.08 14.3328 116.97 15.6714L128.929 16.6587C128.982 16.0138 129.033 15.6945 129.061 15.5641C129.095 15.4047 129.043 15.7779 128.709 16.32C128.292 16.9975 127.598 17.6726 126.665 18.0802C125.879 18.4237 125.282 18.4151 125.26 18.4151V6.41507ZM116.97 15.6685C116.918 16.2953 116.867 16.613 116.839 16.7464C116.805 16.9077 116.851 16.5665 117.158 16.055C117.537 15.4232 118.193 14.7355 119.133 14.2993C119.952 13.9196 120.597 13.9151 120.7 13.9151V25.9151C121.561 25.9151 122.838 25.809 124.182 25.1852C125.649 24.505 126.727 23.4307 127.448 22.2286C128.6 20.3073 128.816 18.0214 128.929 16.6617L116.97 15.6685ZM120.7 13.9151C120.748 13.9151 121.275 13.912 121.987 14.1943C122.825 14.5267 123.607 15.1299 124.154 15.941C124.627 16.6435 124.741 17.2314 124.761 17.3442C124.783 17.4646 124.76 17.4068 124.76 17.0371H112.76C112.76 18.1421 112.788 20.5487 114.202 22.6468C116.123 25.4973 119.083 25.9151 120.7 25.9151V13.9151ZM124.76 17.0371C124.76 14.1556 123.745 11.3283 121.995 9.27163C121.117 8.2404 119.796 7.10656 117.988 6.52349C116.004 5.88383 113.697 6.01891 111.65 7.28394L117.958 17.4922C116.769 18.2267 115.385 18.2928 114.304 17.9443C113.399 17.6523 112.959 17.1697 112.856 17.0485C112.655 16.8118 112.76 16.8396 112.76 17.0371H124.76ZM111.648 7.28515C110.056 8.26974 109.3 9.68566 109.022 10.246C108.653 10.9903 108.414 11.7397 108.253 12.3686C107.928 13.6422 107.76 15.0781 107.76 16.4741H119.76C119.76 15.977 119.826 15.5474 119.879 15.34C119.908 15.2284 119.894 15.3335 119.774 15.5741C119.712 15.6992 119.579 15.9487 119.346 16.2512C119.127 16.5352 118.685 17.042 117.96 17.491L111.648 7.28515ZM107.76 16.4741C107.76 17.0727 107.736 17.32 107.729 17.3744C107.716 17.4661 107.764 16.9305 108.177 16.2204C108.698 15.3237 109.535 14.5948 110.513 14.2013C110.923 14.0364 111.26 13.97 111.457 13.9418C111.558 13.9272 111.636 13.9209 111.684 13.918C111.731 13.9151 111.758 13.9151 111.76 13.9151V25.9151C112.482 25.9151 113.695 25.8559 114.992 25.3337C116.497 24.7285 117.733 23.6595 118.552 22.2492C119.263 21.0256 119.509 19.8032 119.619 18.9896C119.735 18.1388 119.76 17.2625 119.76 16.4741H107.76ZM111.76 13.9151C110.241 13.9151 107.549 14.2626 105.579 16.6612C103.877 18.733 103.76 21.155 103.76 22.3501H115.76C115.76 22.1817 115.776 22.3125 115.705 22.6131C115.628 22.9348 115.417 23.5898 114.851 24.2779C113.518 25.901 111.826 25.9151 111.76 25.9151V13.9151ZM103.76 22.3501C103.76 25.4237 104.409 28.4581 106.014 31.1243C107.649 33.8397 110.058 35.8093 112.941 37.0134L117.566 25.9407C116.844 25.6389 116.506 25.2864 116.295 24.9356C116.054 24.5356 115.76 23.7594 115.76 22.3501H103.76ZM112.94 37.0131C113.35 37.1844 113.596 37.3044 113.738 37.3824C113.881 37.4615 113.826 37.4475 113.68 37.32C113.517 37.1769 113.25 36.8985 113.015 36.4662C112.773 36.0223 112.656 35.584 112.617 35.2307C112.58 34.9086 112.616 34.7345 112.607 34.7843C112.599 34.8368 112.561 35.0227 112.441 35.3897C112.188 36.157 111.726 37.2629 110.944 38.9422L121.823 44.0079C122.638 42.2578 123.354 40.6167 123.84 39.1385C124.304 37.7272 124.766 35.8755 124.541 33.883C123.959 28.7359 119.587 26.7852 117.567 25.941L112.94 37.0131ZM110.944 38.9426C108.151 44.9428 101.915 48.9151 95.6476 48.9151V60.9151C106.724 60.9151 117.121 54.1073 121.823 44.0076L110.944 38.9426ZM95.6476 48.9151C94.0139 48.9151 91.3587 48.3462 88.3513 47.1323C85.3993 45.9408 82.6914 44.3628 80.8998 42.8295L73.0974 51.9466C76.1187 54.5323 80.0389 56.7178 83.8599 58.2601C87.6255 59.78 91.8883 60.9151 95.6476 60.9151V48.9151ZM80.9006 42.8302C78.7973 41.0296 76.6894 38.1804 75.1315 34.962C73.5496 31.694 72.8366 28.6739 72.8886 26.6599L60.8926 26.3503C60.7746 30.9232 62.249 35.8906 64.3304 40.1904C66.4358 44.5397 69.4669 48.8386 73.0966 51.946L80.9006 42.8302ZM72.8886 26.6594L73.0196 21.5694L61.0236 21.2607L60.8926 26.3507L72.8886 26.6594ZM61.0707 22.1812L61.7927 27.7892L73.6945 26.2569L72.9725 20.6489L61.0707 22.1812ZM61.7927 27.7888C62.0443 29.7446 62.3017 31.4837 62.6176 32.8953C62.8712 34.0287 63.3712 36.0562 64.7067 37.6739C65.5234 38.6631 66.8074 39.6918 68.6117 40.0861C70.345 40.4648 71.8324 40.097 72.8049 39.7085C74.4766 39.0407 75.8242 37.8097 76.5559 37.1269L68.3692 28.3532C68.0636 28.6384 67.8921 28.7787 67.8177 28.8347C67.7161 28.9112 67.9157 28.7395 68.3534 28.5647C68.8185 28.3789 69.8516 28.0739 71.1732 28.3626C72.5659 28.6669 73.4808 29.453 73.9605 30.034C74.1837 30.3044 74.3179 30.533 74.3867 30.6622C74.423 30.7302 74.4477 30.783 74.4625 30.8164C74.4774 30.8499 74.4847 30.8691 74.4854 30.871C74.4857 30.8719 74.4687 30.8262 74.4384 30.7194C74.4086 30.6142 74.3714 30.4688 74.328 30.2749C74.142 29.4436 73.9414 28.1756 73.6945 26.2573L61.7927 27.7888ZM76.556 37.1269C80.7854 33.1803 83.9979 26.6643 85.0852 20.6712L73.278 18.529C72.5673 22.4458 70.3898 26.4678 68.3692 28.3533L76.556 37.1269ZM85.085 20.672C85.6303 17.6696 85.2495 13.2535 84.7406 9.98335C84.4675 8.22825 84.1017 6.44498 83.6557 4.94411C83.437 4.2081 83.1519 3.37799 82.7764 2.5989C82.5519 2.13297 81.7485 0.445067 79.9796 -0.648472L73.6696 9.55861C72.8371 9.04393 72.3877 8.45559 72.2387 8.24995C72.0567 7.99862 71.9734 7.8234 71.9664 7.80889C71.9541 7.78324 72.0274 7.94005 72.1528 8.36218C72.3951 9.1776 72.6603 10.3955 72.8833 11.8285C73.1031 13.2406 73.2593 14.7161 73.3223 16.011C73.3899 17.4016 73.3312 18.2356 73.2781 18.5281L85.085 20.672ZM79.9711 -0.653686C78.3097 -1.67697 76.6631 -1.59609 76.3389 -1.58445C75.7218 -1.56231 75.1833 -1.46372 74.826 -1.38675C74.0835 -1.22681 73.3186 -0.980555 72.6408 -0.735736C71.2431 -0.230889 69.5801 0.50055 67.9314 1.33605L73.3558 12.0401C74.6671 11.3756 75.8746 10.855 76.7174 10.5506C77.1598 10.3908 77.3577 10.3431 77.3529 10.3442C77.3394 10.3471 77.2875 10.358 77.2039 10.3701C77.1253 10.3815 76.974 10.4005 76.7692 10.4078C76.5799 10.4146 76.2262 10.4163 75.7768 10.3452C75.3639 10.2798 74.558 10.1058 73.6781 9.56382L79.9711 -0.653686ZM67.9315 1.33603C63.8591 3.39971 60.3965 5.94236 58.0225 9.54855C55.6141 13.2071 54.7448 17.3194 54.6871 21.7347L66.6861 21.8915C66.7244 18.9617 67.2776 17.3136 68.0456 16.1468C68.8482 14.9278 70.3161 13.5804 73.3557 12.0401L67.9315 1.33603ZM54.6871 21.7349L54.6141 27.3369L66.6131 27.4933L66.6861 21.8913L54.6871 21.7349ZM66.2678 25.4077L64.3528 20.0137L53.0444 24.0285L54.9594 29.4225L66.2678 25.4077ZM64.3529 20.0138C61.3041 11.4258 57.1206 4.62313 50.8174 0.106249C44.4854 -4.43122 36.8038 -6.09836 27.9053 -5.99553L28.0439 6.00367C35.4153 5.91849 40.2753 7.31485 43.8276 9.86039C47.4086 12.4265 50.4521 16.7263 53.0443 24.0284L64.3529 20.0138ZM27.9039 -5.99552C23.4198 -5.94268 17.2978 -5.31257 14.0592 -4.42049L17.246 7.14863C19.0754 6.6447 24.0434 6.05081 28.0453 6.00365L27.9039 -5.99552ZM36.7063 8.15674C41.2543 9.50753 43.456 10.7924 45.3868 13.022C47.6277 15.6097 49.84 19.8539 53.2149 28.1711L64.3343 23.6591C60.9912 15.4202 58.1529 9.43292 54.4581 5.16635C50.4532 0.541727 45.8339 -1.65039 40.1229 -3.34661L36.7063 8.15674ZM53.2148 28.1709C54.5014 31.3419 55.7539 34.031 56.8714 36.1176C57.4285 37.1579 57.9809 38.1026 58.5151 38.9069C58.9901 39.6221 59.6616 40.5523 60.4958 41.3106C60.8578 41.6395 61.742 42.4005 63.066 42.8229C64.7519 43.3608 67.4078 43.3355 69.4419 41.2377C70.9128 39.7208 71.1535 37.9562 71.2166 37.403C71.3043 36.6334 71.2598 35.939 71.2087 35.4552C71.0171 33.6408 70.3033 31.1819 69.3073 28.3521L57.9879 32.3361C58.4497 33.648 58.7733 34.6791 58.9867 35.4575C59.093 35.8449 59.1656 36.1472 59.2132 36.3733C59.2368 36.4851 59.2524 36.5702 59.2625 36.6311C59.2728 36.693 59.2755 36.7197 59.2751 36.7158C59.275 36.7142 59.2691 36.6599 59.2672 36.5634C59.2653 36.4724 59.2657 36.2901 59.2938 36.044C59.3199 35.8149 59.479 34.2742 60.827 32.8841C61.6148 32.0717 62.6831 31.4526 63.9306 31.2207C65.1028 31.0029 66.0838 31.1898 66.7137 31.3907C67.8355 31.7487 68.4796 32.351 68.5669 32.4303C68.8518 32.6893 68.8355 32.756 68.5113 32.2678C68.2463 31.8689 67.888 31.2705 67.4499 30.4523C66.5768 28.8221 65.5003 26.5328 64.3344 23.6592L53.2148 28.1709ZM69.3073 28.352C67.7111 23.8172 67.7479 20.8141 68.4268 18.8007C69.0659 16.9053 70.5877 14.9575 74.0385 13.1367L68.4386 2.52344C63.0595 5.36166 58.9317 9.40331 57.0559 14.9664C55.2198 20.4115 55.876 26.3359 57.9879 32.3361L69.3073 28.352ZM74.0375 13.1372C74.9588 12.6513 75.5849 12.3411 76.0252 12.1463C76.5139 11.9301 76.5008 11.9811 76.205 12.0353C75.8345 12.1031 74.7475 12.2227 73.4855 11.6195C72.2765 11.0417 71.7174 10.1798 71.608 10.0042L81.7912 3.6559C81.3143 2.89086 80.3657 1.60768 78.6599 0.792461C76.9012 -0.0480783 75.2102 0.0178832 74.0432 0.231605C72.165 0.575579 70.1293 1.63178 68.4396 2.52291L74.0375 13.1372ZM71.6083 10.0047C71.5183 9.86047 71.6752 10.0854 71.8734 10.9336C72.0504 11.6916 72.1959 12.668 72.2746 13.7692C72.4387 16.0643 72.2707 18.2593 71.9224 19.5679L83.5188 22.6542C84.3205 19.6418 84.466 16.0179 84.2441 12.9135C84.1298 11.3149 83.9074 9.69638 83.5588 8.20411C83.2313 6.80198 82.7049 5.12116 81.7909 3.65544L71.6083 10.0047ZM71.9225 19.5678C71.5614 20.9243 70.5668 23.045 69.3825 24.893C68.8052 25.7937 68.3212 26.411 68.0264 26.7246C67.8706 26.8904 67.9004 26.8287 68.1138 26.6821C68.1745 26.6404 69.1706 25.9151 70.7966 25.9151V37.9151C72.8266 37.9151 74.3062 36.9868 74.9082 36.5733C75.6629 36.0549 76.2917 35.4524 76.7711 34.9423C77.7467 33.9041 78.6775 32.6291 79.4857 31.3679C81.0724 28.8921 82.7318 25.6109 83.5187 22.6544L71.9225 19.5678ZM70.7966 25.9151C72.6942 25.9151 74.0169 26.8966 74.6673 27.6484C74.9641 27.9915 75.1354 28.2927 75.2229 28.4662C75.313 28.645 75.3532 28.7661 75.3635 28.7984C75.3665 28.8076 75.2477 28.3381 75.238 27.2474C75.2195 25.1767 75.6 22.3045 76.4006 19.7321L64.9426 16.1661C63.7772 19.9107 63.2087 24.0214 63.2385 27.3545C63.2528 28.9657 63.4075 30.8032 63.9307 32.444C64.1868 33.2471 64.6599 34.4221 65.5923 35.4998C66.6259 36.6945 68.3932 37.9151 70.7966 37.9151V25.9151ZM76.4005 19.7322C76.9798 17.8709 77.4788 16.0911 77.8153 14.7019C77.9791 14.0259 78.1304 13.3364 78.2263 12.7358C78.2703 12.4603 78.3326 12.0233 78.3484 11.5423C78.3557 11.3182 78.362 10.867 78.2803 10.3221C78.2472 10.1011 78.0335 8.36971 76.5632 6.89943L68.0779 15.3847C67.264 14.5708 66.8837 13.7209 66.712 13.2585C66.5276 12.7624 66.4495 12.3452 66.413 12.1019C66.3415 11.6253 66.351 11.2636 66.3548 11.149C66.3634 10.887 66.3914 10.7494 66.3763 10.8442C66.354 10.9841 66.2877 11.319 66.1526 11.8767C65.8914 12.955 65.4674 14.4802 64.9427 16.1659L76.4005 19.7322ZM76.5609 6.89709C75.111 5.44883 73.2305 4.94939 71.5891 5.0921C70.2129 5.21175 69.2025 5.7503 68.7075 6.05071C67.701 6.6616 66.9599 7.45389 66.5573 7.91044C65.6375 8.95356 64.7288 10.3003 63.9502 11.5892C62.4244 14.115 60.6646 17.6484 59.9357 20.5482L71.5735 23.4739C71.8805 22.2527 72.9502 19.8986 74.2217 17.7937C74.8418 16.7672 75.3236 16.1128 75.5581 15.8468C75.7327 15.6488 75.5096 15.9596 74.9336 16.3092C74.6538 16.479 73.8368 16.9419 72.6285 17.047C71.1549 17.1751 69.4168 16.7221 68.0803 15.387L76.5609 6.89709ZM59.9356 20.5484C59.4247 22.5811 59.0942 24.5196 59.1009 26.5842C59.1076 28.6602 59.454 30.575 59.9898 32.5656L71.5774 29.4465C71.2112 28.0861 71.1031 27.254 71.1008 26.5454C71.0985 25.8255 71.2045 24.942 71.5736 23.4737L59.9356 20.5484ZM59.99 32.5662C64.6037 49.6997 78.4985 61.8781 95.453 61.9051L95.4721 49.9051C84.7847 49.8881 75.0155 42.2144 71.5772 29.446L59.99 32.5662ZM95.4527 61.9051C99.0842 61.911 102.276 61.6378 105.427 60.6196C108.592 59.5969 111.299 57.9574 114.162 55.8396L107.025 46.1925C104.677 47.9297 103.163 48.7403 101.737 49.201C100.297 49.6663 98.529 49.9101 95.4725 49.9051L95.4527 61.9051ZM114.162 55.8393C118.999 52.2608 122.664 46.0495 124.462 41.0057C125.354 38.5038 126.069 35.5257 125.828 32.7886C125.706 31.4071 125.286 29.4544 123.877 27.7457C122.271 25.7982 120.003 24.9151 117.76 24.9151V36.9151C116.826 36.9151 115.539 36.4955 114.619 35.3799C114.244 34.9254 114.06 34.5042 113.973 34.2478C113.887 33.9952 113.875 33.8427 113.875 33.8421C113.874 33.8362 113.881 33.9141 113.868 34.09C113.856 34.2623 113.828 34.4946 113.773 34.788C113.662 35.3816 113.463 36.1228 113.159 36.976C111.843 40.6661 109.305 44.5053 107.025 46.1928L114.162 55.8393ZM117.76 24.9151C118.455 24.9151 118.692 25.2092 118.481 25.0347C118.29 24.8763 118.027 24.557 117.843 24.175C117.759 24.001 117.728 23.8868 117.721 23.8549C117.711 23.8116 117.753 23.9587 117.72 24.2632C117.686 24.5779 117.559 25.1614 117.12 25.7932C116.651 26.4686 116.015 26.9223 115.41 27.1544L111.109 15.9518C107.664 17.2745 106.08 20.2666 105.789 22.9844C105.53 25.3942 106.206 27.6653 107.028 29.3739C107.883 31.1523 109.17 32.9033 110.825 34.2751C112.462 35.6308 114.842 36.9151 117.76 36.9151V24.9151ZM115.405 27.1564C118.201 26.0858 119.46 23.7129 119.987 22.2907C120.568 20.7218 120.76 19.041 120.76 17.5051H108.76C108.76 18.1332 108.669 18.2974 108.734 18.1219C108.771 18.0216 108.903 17.6955 109.23 17.2923C109.57 16.8734 110.178 16.3082 111.114 15.9498L115.405 27.1564ZM120.76 17.5051C120.76 16.976 120.827 16.5213 120.882 16.2966C120.911 16.1747 120.9 16.2754 120.785 16.5153C120.726 16.6395 120.594 16.8964 120.359 17.2096C120.141 17.5003 119.683 18.0433 118.915 18.5186L112.605 8.3115C110.958 9.32913 110.21 10.8144 109.957 11.343C109.604 12.0833 109.376 12.8273 109.225 13.4468C108.917 14.7048 108.76 16.1251 108.76 17.5051H120.76ZM118.912 18.5201C118.164 18.9819 116.949 19.4711 115.422 19.3297C113.885 19.1873 112.76 18.4729 112.083 17.8424C111.452 17.2557 111.124 16.6741 110.982 16.3904C110.825 16.0786 110.751 15.8429 110.724 15.7509C110.66 15.5299 110.76 15.8083 110.76 16.8561H122.76C122.76 15.4528 122.661 13.8243 122.248 12.4023C122.088 11.8514 121.614 10.3201 120.259 9.05898C119.459 8.31489 118.204 7.53602 116.53 7.38089C114.866 7.22674 113.506 7.75501 112.607 8.31006L118.912 18.5201ZM110.76 16.8561V20.9151H122.76V16.8561H110.76ZM116.76 26.9151H120.76V14.9151H116.76V26.9151ZM120.76 26.9151H124.76V14.9151H120.76V26.9151ZM130.76 20.9151V16.8561H118.76V20.9151H130.76ZM130.76 16.8561C130.76 15.8083 130.859 15.5299 130.795 15.7509C130.768 15.8429 130.694 16.0786 130.538 16.3904C130.395 16.6741 130.067 17.2557 129.437 17.8424C128.759 18.4729 127.634 19.1873 126.097 19.3297C124.57 19.4711 123.355 18.9819 122.607 18.5201L128.912 8.31006C128.013 7.75501 126.653 7.22674 124.99 7.38089C123.315 7.53602 122.06 8.31489 121.26 9.05898C119.906 10.3201 119.432 11.8514 119.271 12.4023C118.858 13.8243 118.76 15.4528 118.76 16.8561H130.76ZM122.605 18.5186C121.843 18.0478 121.388 17.5111 121.169 17.2207C120.934 16.9087 120.801 16.6521 120.741 16.5267C120.624 16.2845 120.611 16.1805 120.64 16.2976C120.693 16.5134 120.76 16.9568 120.76 17.4741H132.76C132.76 16.0983 132.601 14.6822 132.292 13.4268C132.139 12.8083 131.911 12.0657 131.555 11.3264C131.299 10.7935 130.55 9.3224 128.915 8.3115L122.605 18.5186ZM120.76 17.4741C120.76 18.8242 120.853 20.7339 121.618 22.4889C122.045 23.4687 122.793 24.662 124.092 25.5919C125.446 26.5614 126.937 26.9151 128.26 26.9151V14.9151C129.06 14.9151 130.104 15.1377 131.079 15.8356C131.998 16.4941 132.436 17.2756 132.619 17.6942C132.791 18.0901 132.807 18.3198 132.793 18.212C132.781 18.1273 132.76 17.8992 132.76 17.4741H120.76ZM128.26 26.9151C127.194 26.9151 126.127 26.5499 125.27 25.8754C124.492 25.263 124.123 24.5865 123.966 24.227C123.688 23.59 123.783 23.3066 123.762 23.6424C123.747 23.8745 123.683 24.1941 123.57 24.484C123.449 24.7962 123.376 24.8137 123.517 24.6724L132.002 33.1577C134.535 30.6247 135.571 27.0598 135.738 24.3915C135.824 23.0267 135.734 21.1923 134.965 19.4295C134.12 17.492 131.983 14.9151 128.26 14.9151V26.9151ZM123.517 24.6724C123.495 24.6944 123.431 24.7533 123.324 24.8303C123.22 24.906 123.113 24.9712 123.024 25.0181C122.927 25.0688 122.91 25.0677 122.984 25.0438C123.025 25.0307 123.12 25.0024 123.263 24.9757C123.401 24.95 123.641 24.9151 123.96 24.9151V36.9151C125.912 36.9151 127.627 36.156 128.613 35.6371C129.771 35.0274 130.978 34.1823 132.002 33.1577L123.517 24.6724ZM123.96 24.9151C122.554 24.9151 120.973 25.2851 119.524 26.3297C118.198 27.2854 117.411 28.5011 116.93 29.4456C116.053 31.172 115.516 33.4185 115.052 35.6645L126.803 38.0936C127.029 37.0031 127.217 36.212 127.38 35.636C127.552 35.0326 127.646 34.848 127.628 34.8835C127.612 34.9146 127.316 35.5054 126.54 36.0648C126.136 36.3559 125.674 36.5856 125.178 36.733C124.694 36.877 124.27 36.9151 123.96 36.9151V24.9151ZM115.052 35.6655C113.246 44.4075 105.992 50.8817 97.5704 51.6317L98.6348 63.5844C112.515 62.3484 123.965 51.8366 126.804 38.0926L115.052 35.6655ZM97.5701 51.6317C91.9894 52.129 85.789 50.3088 77.9309 44.7011L70.9603 54.469C80.2262 61.0813 89.2437 64.4212 98.6351 63.5844L97.5701 51.6317ZM77.9306 44.701C72.7346 40.9933 70.1259 38.2843 56.2347 20.7776L46.8345 28.2365C60.5373 45.5059 64.1546 49.6128 70.9605 54.4692L77.9306 44.701ZM56.2346 20.7775C51.966 15.3981 47.9346 11.3098 43.236 8.53845C38.4205 5.69814 33.3749 4.51317 27.537 4.13839L26.7682 16.1137C31.3513 16.408 34.4117 17.2655 37.1395 18.8744C39.9841 20.5523 42.9332 23.32 46.8345 28.2366L56.2346 20.7775ZM27.5362 4.13834C25.3366 3.99742 23.3884 3.99367 21.7922 4.11611C21.0001 4.17686 20.1978 4.27579 19.4458 4.43686C18.8575 4.56287 17.6645 4.85031 16.5288 5.59593C15.9561 5.97191 14.8306 6.82992 14.1481 8.39398C13.3267 10.2763 13.5427 12.2552 14.3512 13.7882C15.0212 15.0586 15.9593 15.7905 16.4467 16.1278C16.9991 16.5101 17.5342 16.7659 17.9329 16.9338C19.3785 17.5427 21.2598 17.9063 23.1719 18.1628L24.7673 6.26933C23.0304 6.03634 22.4842 5.82977 22.5913 5.8749C22.6554 5.90189 22.924 6.01706 23.2758 6.26055C23.5627 6.45909 24.3662 7.05391 24.9655 8.19037C25.7034 9.58944 25.9127 11.4375 25.1465 13.1935C24.5191 14.6312 23.5105 15.3673 23.1146 15.6272C22.3325 16.1407 21.7322 16.2193 21.9592 16.1707C22.0225 16.1571 22.2581 16.1156 22.7099 16.081C23.6014 16.0126 24.9651 15.9982 26.769 16.1138L27.5362 4.13834ZM23.1716 18.1628C29.0025 18.9452 36.7669 23.5346 40.7993 28.8475L50.3579 21.5927C44.5463 13.9355 34.0047 7.50891 24.7676 6.26937L23.1716 18.1628ZM40.7995 28.8478C41.8993 30.2967 42.7648 31.6045 43.2744 32.4975C43.5479 32.9766 43.6129 33.1526 43.5873 33.0838C43.5866 33.0819 43.4412 32.7143 43.3758 32.1319C43.3423 31.8339 43.3011 31.2445 43.4408 30.5053C43.5831 29.752 43.9736 28.5526 45.0404 27.483L53.5368 35.9572C55.6592 33.8291 55.3476 31.2085 55.3007 30.7915C55.2076 29.9634 54.9756 29.2795 54.8342 28.8997C54.5274 28.0749 54.0954 27.2484 53.6965 26.5494C52.8614 25.0861 51.6809 23.3355 50.3577 21.5923L40.7995 28.8478ZM45.0515 27.4719C45.7745 26.7507 46.4933 26.4187 46.7006 26.3249C46.9945 26.1919 47.2191 26.1237 47.3022 26.0994C47.4713 26.0501 47.5271 26.0479 47.387 26.0713C47.1329 26.1136 46.6505 26.1722 45.924 26.2291C44.5017 26.3404 42.5366 26.4151 40.4056 26.4151V38.4151C42.7775 38.4151 45.0625 38.3332 46.8602 38.1925C47.7436 38.1234 48.6138 38.0322 49.3576 37.9084C49.7164 37.8486 50.1825 37.7593 50.6611 37.6198C50.8989 37.5504 51.2531 37.4363 51.6498 37.2568C51.9599 37.1164 52.7548 36.7371 53.5257 35.9683L45.0515 27.4719ZM40.4056 26.4151C36.8082 26.4151 35.1467 26.3043 33.7884 26.0077C32.4941 25.7251 31.1795 25.209 28.3981 23.8337L23.0791 34.5905C25.9927 36.0312 28.4126 37.1166 31.2285 37.7314C33.9805 38.3324 36.805 38.4151 40.4056 38.4151V26.4151ZM28.3978 23.8336C26.0446 22.6701 20.7822 18.9523 15.6835 14.8887C13.2174 12.9233 10.9657 11.0175 9.32028 9.49697C8.4892 8.729 7.88765 8.12807 7.50961 7.70949C7.31834 7.4977 7.24933 7.40399 7.25447 7.41112C7.25917 7.41763 7.31529 7.49508 7.39383 7.63317C7.46231 7.75357 7.62395 8.05186 7.76556 8.48898L-3.65037 12.1872C-3.30679 13.2477 -2.74959 14.0545 -2.47764 14.4315C-2.13503 14.9065 -1.75407 15.356 -1.39601 15.7525C-0.675382 16.5504 0.21916 17.4259 1.17625 18.3103C3.10713 20.0945 5.60017 22.1974 8.20444 24.2729C13.2465 28.2913 19.4276 32.7851 23.0793 34.5906L28.3978 23.8336ZM7.76493 8.48704C8.35421 10.304 7.8684 11.7754 7.64985 12.3161C7.40362 12.9253 7.11566 13.3015 7.03376 13.4063C6.85565 13.6341 6.80187 13.6407 7.05985 13.4282C7.518 13.0507 8.36204 12.471 9.45717 11.8749L3.72002 1.33522C2.13115 2.2001 0.613687 3.19091 -0.570663 4.16669C-1.13393 4.63077 -1.82921 5.25975 -2.41951 6.01469C-2.70751 6.38302 -3.14423 6.99908 -3.47571 7.81918C-3.7795 8.57078 -4.28703 10.2241 -3.64974 12.1891L7.76493 8.48704ZM9.4571 11.8749C18.2125 7.10919 28.8819 5.83354 36.7068 8.15688L40.1224 -3.34675C28.8173 -6.70341 14.8647 -4.73106 3.72008 1.33519L9.4571 11.8749Z" fill="white" mask="url(#path-1-inside-1_20_34)"/>
<path d="M1 9.5L10 4.5L20.5 1V18L18.5 24.5L9 18L2.5 12L1 9.5Z" fill="white"/>
<path d="M20.5 11L31 13.5L37 17L46 24.5L50 31.5L47.5 33L42.5 33.5L35.5 33L25 29.5L17 23.5L20.5 11Z" fill="white"/>
<path d="M20 1.5L27 0.5L38.5 2L48 6L53.5 13.5L57.5 21L63.5 34.5L70.5 46.5L66.5 43L64 40L59 34L47.5 20.5L40 14L29.5 10.5L20 11V1.5Z" fill="white"/>
<path d="M67 42L63.5 36.5L78.5 49L92.5 57.5L86 57L73 49.5L67 44V42Z" fill="white"/>
<path d="M62 19L64 12.5L73.5 6L76 5.5L78 9L78.5 11L79 16.5L78 22L74 29.5L70.5 32.5L69 30.5L69.5 21.5L71 13L67 19L66 26.5L67 34L72.5 44L67.5 42L62 34L61.5 22.5L62 19Z" fill="white"/>
<path d="M87.5 54.5L96.5 55.5L106 53.5L114.5 47L119 36.5L118.5 32L116 31L112.5 28.5L111 23.5L112 22L114 19.5L115 13.5L116.5 13L118 19L120 20.5L122.5 20L125 13.5L126.5 13L128 20L130 22V27L126.5 30.5L125 31.5L123.5 31L120.5 41.5L115.5 50L105 57L96.5 58L87.5 57V54.5Z" fill="white"/>
</svg>
